<svg width="30" height="30" viewBox="0 0 30 30" fill="none" xmlns="http://www.w3.org/2000/svg">
<path d="M24.1877 21.1346C23.8772 20.6454 21.6016 17.1006 19.6566 15.2255C18.0339 13.6674 15.6051 13.6223 15.3297 13.6223C15.3047 13.6224 15.2795 13.6234 15.2549 13.6253H14.666C14.4059 13.6253 12.075 13.6696 10.3703 15.2042C8.26689 17.0998 5.93957 20.923 5.77672 21.1925C4.54383 23.1418 3.78821 24.4095 3.78821 25.819C3.78821 28.3589 5.64915 30.0001 8.52912 30.0001C13.981 28.6631 16.8003 28.6888 21.4718 30.0001C24.351 30.0001 26.2114 28.3573 26.2114 25.8148C26.2114 24.3929 25.4539 23.127 24.2177 21.1795C24.208 21.1643 24.1981 21.1492 24.1877 21.1346ZM21.4718 28.0333C16.2913 26.7493 13.4514 26.72 8.52912 28.0333C7.49304 28.0333 5.75496 27.7457 5.75496 25.819C5.75496 24.9958 6.29594 24.0504 7.44439 22.2351C7.4482 22.2291 7.452 22.2229 7.4558 22.2167C7.47875 22.1787 9.76752 18.3952 11.6865 16.6658C12.8568 15.6124 14.6494 15.5923 14.6668 15.5922H15.3329C15.3516 15.5922 15.3701 15.5917 15.3887 15.5906C15.7088 15.6027 17.3213 15.7096 18.2932 16.6427C20.166 18.4485 22.5315 22.1951 22.5552 22.2327C22.5658 22.2497 22.5768 22.266 22.5884 22.282C23.8098 24.2092 24.2448 25.0378 24.2448 25.8146C24.2446 27.6484 22.7367 28.0333 21.4718 28.0333Z" fill="white"/>
<path fill-rule="evenodd" clip-rule="evenodd" d="M7.25 13.125C7.25 14.8509 5.85089 16.25 4.125 16.25C2.39911 16.25 1 14.8509 1 13.125C1 11.3991 2.39911 10 4.125 10C5.85089 10 7.25 11.3991 7.25 13.125ZM4.09998 14.6C4.9284 14.6 5.59998 13.9284 5.59998 13.1C5.59998 12.2716 4.9284 11.6 4.09998 11.6C3.27155 11.6 2.59998 12.2716 2.59998 13.1C2.59998 13.9284 3.27155 14.6 4.09998 14.6Z" fill="white"/>
<path fill-rule="evenodd" clip-rule="evenodd" d="M14.25 8.125C14.25 9.85089 12.8509 11.25 11.125 11.25C9.39911 11.25 8 9.85089 8 8.125C8 6.39911 9.39911 5 11.125 5C12.8509 5 14.25 6.39911 14.25 8.125ZM11.1 9.60001C11.9284 9.60001 12.6 8.92843 12.6 8.10001C12.6 7.27158 11.9284 6.60001 11.1 6.60001C10.2715 6.60001 9.59998 7.27158 9.59998 8.10001C9.59998 8.92843 10.2715 9.60001 11.1 9.60001Z" fill="white"/>
<path fill-rule="evenodd" clip-rule="evenodd" d="M22.25 8.125C22.25 9.85089 20.8509 11.25 19.125 11.25C17.3991 11.25 16 9.85089 16 8.125C16 6.39911 17.3991 5 19.125 5C20.8509 5 22.25 6.39911 22.25 8.125ZM19.1 9.60001C19.9284 9.60001 20.6 8.92843 20.6 8.10001C20.6 7.27158 19.9284 6.60001 19.1 6.60001C18.2715 6.60001 17.6 7.27158 17.6 8.10001C17.6 8.92843 18.2715 9.60001 19.1 9.60001Z" fill="white"/>
<path fill-rule="evenodd" clip-rule="evenodd" d="M29.25 13.125C29.25 14.8509 27.8509 16.25 26.125 16.25C24.3991 16.25 23 14.8509 23 13.125C23 11.3991 24.3991 10 26.125 10C27.8509 10 29.25 11.3991 29.25 13.125ZM26.1 14.6C26.9284 14.6 27.6 13.9284 27.6 13.1C27.6 12.2716 26.9284 11.6 26.1 11.6C25.2715 11.6 24.6 12.2716 24.6 13.1C24.6 13.9284 25.2715 14.6 26.1 14.6Z" fill="white"/>
</svg>
