<svg width="111" height="111" viewBox="0 0 111 111" fill="none" xmlns="http://www.w3.org/2000/svg">
<path d="M20.8125 55.5C27.1983 55.5 32.375 50.3233 32.375 43.9375C32.375 37.5517 27.1983 32.375 20.8125 32.375C14.4267 32.375 9.25 37.5517 9.25 43.9375C9.25 50.3233 14.4267 55.5 20.8125 55.5Z" fill="#64B5F6"/>
<path d="M41.625 37C48.0108 37 53.1875 31.8233 53.1875 25.4375C53.1875 19.0517 48.0108 13.875 41.625 13.875C35.2392 13.875 30.0625 19.0517 30.0625 25.4375C30.0625 31.8233 35.2392 37 41.625 37Z" fill="#64B5F6"/>
<path d="M69.375 37C75.7608 37 80.9375 31.8233 80.9375 25.4375C80.9375 19.0517 75.7608 13.875 69.375 13.875C62.9892 13.875 57.8125 19.0517 57.8125 25.4375C57.8125 31.8233 62.9892 37 69.375 37Z" fill="#64B5F6"/>
<path d="M90.1875 55.5C96.5733 55.5 101.75 50.3233 101.75 43.9375C101.75 37.5517 96.5733 32.375 90.1875 32.375C83.8017 32.375 78.625 37.5517 78.625 43.9375C78.625 50.3233 83.8017 55.5 90.1875 55.5Z" fill="#64B5F6"/>
<path d="M80.1975 68.7275C76.1737 64.01 72.7975 59.9862 68.7275 55.2687C66.6 52.7712 63.8712 50.2738 60.6337 49.1638C60.125 48.9788 59.6162 48.84 59.1075 48.7475C57.9512 48.5625 56.7025 48.5625 55.5 48.5625C54.2975 48.5625 53.0487 48.5625 51.8462 48.7938C51.3375 48.8863 50.8287 49.025 50.32 49.21C47.0825 50.32 44.4 52.8175 42.2262 55.315C38.2025 60.0325 34.8262 64.0562 30.7562 68.7737C24.6975 74.8325 17.2512 81.5387 18.6387 90.9275C19.98 95.645 23.3562 100.316 29.415 101.657C32.7912 102.351 43.5675 99.6225 55.0375 99.6225H55.87C67.34 99.6225 78.1162 102.305 81.4925 101.657C87.5513 100.316 90.9275 95.5987 92.2688 90.9275C93.7025 81.4925 86.2562 74.7862 80.1975 68.7275Z" fill="#64B5F6"/>
</svg>
